<mxfile host="app.diagrams.net" modified="2021-11-03T07:30:11.374Z" agent="5.0 (Macintosh; Intel Mac OS X 10_15_7) AppleWebKit/537.36 (KHTML, like Gecko) Chrome/95.0.4638.54 Safari/537.36" etag="6P1BhJqn62LIzLdmYupp" version="15.6.6" type="github">
  <diagram id="C5RBs43oDa-KdzZeNtuy" name="Page-1">
    <mxGraphModel dx="1113" dy="760" grid="1" gridSize="10" guides="1" tooltips="1" connect="1" arrows="1" fold="1" page="1" pageScale="1" pageWidth="827" pageHeight="1169" background="#F4F1DE" math="0" shadow="0">
      <root>
        <mxCell id="WIyWlLk6GJQsqaUBKTNV-0" />
        <mxCell id="WIyWlLk6GJQsqaUBKTNV-1" parent="WIyWlLk6GJQsqaUBKTNV-0" />
        <mxCell id="ZUxsnm-QVzawkIESuw82-3" value="" style="edgeStyle=orthogonalEdgeStyle;rounded=0;orthogonalLoop=1;jettySize=auto;html=1;fontSize=25;fontColor=#393C56;strokeColor=#E07A5F;labelBackgroundColor=none;" edge="1" parent="WIyWlLk6GJQsqaUBKTNV-1" source="WIyWlLk6GJQsqaUBKTNV-3" target="ZUxsnm-QVzawkIESuw82-1">
          <mxGeometry relative="1" as="geometry" />
        </mxCell>
        <mxCell id="WIyWlLk6GJQsqaUBKTNV-3" value="连接用户提供mysql服务器的账号密码" style="rounded=1;whiteSpace=wrap;html=1;fontSize=12;glass=0;strokeWidth=1;shadow=0;strokeColor=#E07A5F;fontColor=#393C56;fillColor=#F2CC8F;labelBackgroundColor=none;" parent="WIyWlLk6GJQsqaUBKTNV-1" vertex="1">
          <mxGeometry x="185" y="490" width="120" height="40" as="geometry" />
        </mxCell>
        <mxCell id="WIyWlLk6GJQsqaUBKTNV-11" value="sql转dql 数据写入dgraph" style="rounded=1;whiteSpace=wrap;html=1;fontSize=12;glass=0;strokeWidth=1;shadow=0;strokeColor=#E07A5F;fontColor=#393C56;labelBackgroundColor=none;fillColor=#F2CC8F;" parent="WIyWlLk6GJQsqaUBKTNV-1" vertex="1">
          <mxGeometry x="185" y="770" width="120" height="40" as="geometry" />
        </mxCell>
        <mxCell id="ZUxsnm-QVzawkIESuw82-0" value="&lt;font style=&quot;font-size: 25px&quot;&gt;mysql 数据库 同步到 dgraph 设计方案&lt;/font&gt;" style="text;html=1;align=center;verticalAlign=middle;resizable=0;points=[];autosize=1;strokeColor=none;fillColor=none;fontColor=#393C56;" vertex="1" parent="WIyWlLk6GJQsqaUBKTNV-1">
          <mxGeometry x="194" y="30" width="440" height="20" as="geometry" />
        </mxCell>
        <mxCell id="ZUxsnm-QVzawkIESuw82-5" value="" style="edgeStyle=orthogonalEdgeStyle;rounded=0;orthogonalLoop=1;jettySize=auto;html=1;fontSize=25;fontColor=#393C56;strokeColor=#E07A5F;labelBackgroundColor=none;" edge="1" parent="WIyWlLk6GJQsqaUBKTNV-1" source="ZUxsnm-QVzawkIESuw82-1" target="ZUxsnm-QVzawkIESuw82-4">
          <mxGeometry relative="1" as="geometry" />
        </mxCell>
        <mxCell id="ZUxsnm-QVzawkIESuw82-1" value="开启mysql binlog" style="whiteSpace=wrap;html=1;rounded=1;shadow=0;strokeWidth=1;glass=0;fillColor=#F2CC8F;strokeColor=#E07A5F;fontColor=#393C56;labelBackgroundColor=none;" vertex="1" parent="WIyWlLk6GJQsqaUBKTNV-1">
          <mxGeometry x="185" y="570" width="120" height="60" as="geometry" />
        </mxCell>
        <mxCell id="ZUxsnm-QVzawkIESuw82-7" value="" style="edgeStyle=orthogonalEdgeStyle;rounded=0;orthogonalLoop=1;jettySize=auto;html=1;fontSize=25;fontColor=#393C56;strokeColor=#E07A5F;labelBackgroundColor=none;" edge="1" parent="WIyWlLk6GJQsqaUBKTNV-1" source="ZUxsnm-QVzawkIESuw82-4" target="WIyWlLk6GJQsqaUBKTNV-11">
          <mxGeometry relative="1" as="geometry" />
        </mxCell>
        <mxCell id="ZUxsnm-QVzawkIESuw82-4" value="binlog监听、sql解析" style="whiteSpace=wrap;html=1;rounded=1;shadow=0;strokeWidth=1;glass=0;fillColor=#F2CC8F;strokeColor=#E07A5F;fontColor=#393C56;labelBackgroundColor=none;" vertex="1" parent="WIyWlLk6GJQsqaUBKTNV-1">
          <mxGeometry x="185" y="670" width="120" height="60" as="geometry" />
        </mxCell>
        <mxCell id="ZUxsnm-QVzawkIESuw82-10" value="存在的问题" style="text;html=1;strokeColor=none;fillColor=none;align=center;verticalAlign=middle;whiteSpace=wrap;rounded=0;fontSize=18;fontColor=#393C56;labelBackgroundColor=#F4F1DE;" vertex="1" parent="WIyWlLk6GJQsqaUBKTNV-1">
          <mxGeometry x="399" y="490" width="110" height="30" as="geometry" />
        </mxCell>
        <mxCell id="ZUxsnm-QVzawkIESuw82-11" value="&lt;ol style=&quot;text-align: left ; font-size: 12px ; line-height: 1.5&quot;&gt;&lt;li&gt;访问外部服务器，并能读取文件，存在的网络和认证问题&lt;/li&gt;&lt;li&gt;如何让用户授权并开启binglog&lt;/li&gt;&lt;li&gt;读取binlog文件，并将数据同步到dgarph&lt;/li&gt;&lt;li&gt;binlog中特殊sql解析的复杂度&lt;/li&gt;&lt;/ol&gt;" style="text;html=1;align=center;verticalAlign=middle;resizable=0;points=[];autosize=1;strokeColor=none;fillColor=none;fontSize=18;fontColor=#393C56;perimeterSpacing=3;labelBackgroundColor=none;" vertex="1" parent="WIyWlLk6GJQsqaUBKTNV-1">
          <mxGeometry x="355" y="510" width="360" height="100" as="geometry" />
        </mxCell>
        <mxCell id="ZUxsnm-QVzawkIESuw82-13" value="" style="edgeStyle=orthogonalEdgeStyle;rounded=0;orthogonalLoop=1;jettySize=auto;html=1;fontSize=25;fontColor=#393C56;strokeColor=#E07A5F;labelBackgroundColor=none;" edge="1" parent="WIyWlLk6GJQsqaUBKTNV-1" source="ZUxsnm-QVzawkIESuw82-14" target="ZUxsnm-QVzawkIESuw82-17">
          <mxGeometry relative="1" as="geometry" />
        </mxCell>
        <mxCell id="ZUxsnm-QVzawkIESuw82-14" value="申请客资的相关表进行binlog监控" style="rounded=1;whiteSpace=wrap;html=1;fontSize=12;glass=0;strokeWidth=1;shadow=0;strokeColor=#E07A5F;fontColor=#393C56;fillColor=#F2CC8F;labelBackgroundColor=none;" vertex="1" parent="WIyWlLk6GJQsqaUBKTNV-1">
          <mxGeometry x="185" y="130" width="120" height="50" as="geometry" />
        </mxCell>
        <mxCell id="ZUxsnm-QVzawkIESuw82-16" value="" style="edgeStyle=orthogonalEdgeStyle;rounded=0;orthogonalLoop=1;jettySize=auto;html=1;fontSize=25;fontColor=#393C56;strokeColor=#E07A5F;labelBackgroundColor=none;" edge="1" parent="WIyWlLk6GJQsqaUBKTNV-1" source="ZUxsnm-QVzawkIESuw82-17" target="ZUxsnm-QVzawkIESuw82-19">
          <mxGeometry relative="1" as="geometry" />
        </mxCell>
        <mxCell id="ZUxsnm-QVzawkIESuw82-17" value="接入bisheng提供的kafka做实时数据的处理" style="whiteSpace=wrap;html=1;rounded=1;shadow=0;strokeWidth=1;glass=0;fillColor=#F2CC8F;strokeColor=#E07A5F;fontColor=#393C56;labelBackgroundColor=none;" vertex="1" parent="WIyWlLk6GJQsqaUBKTNV-1">
          <mxGeometry x="185" y="220" width="120" height="60" as="geometry" />
        </mxCell>
        <mxCell id="ZUxsnm-QVzawkIESuw82-19" value="消费topic进行增量数据写入到dgraph" style="whiteSpace=wrap;html=1;rounded=1;shadow=0;strokeWidth=1;glass=0;fillColor=#F2CC8F;strokeColor=#E07A5F;fontColor=#393C56;labelBackgroundColor=none;" vertex="1" parent="WIyWlLk6GJQsqaUBKTNV-1">
          <mxGeometry x="185" y="320" width="120" height="60" as="geometry" />
        </mxCell>
        <mxCell id="ZUxsnm-QVzawkIESuw82-20" value="存在的问题" style="text;html=1;strokeColor=none;fillColor=none;align=center;verticalAlign=middle;whiteSpace=wrap;rounded=0;fontSize=18;fontColor=#393C56;labelBackgroundColor=#F4F1DE;" vertex="1" parent="WIyWlLk6GJQsqaUBKTNV-1">
          <mxGeometry x="399" y="140" width="110" height="30" as="geometry" />
        </mxCell>
        <mxCell id="ZUxsnm-QVzawkIESuw82-21" value="&lt;ol style=&quot;text-align: left ; font-size: 12px ; line-height: 1.5&quot;&gt;&lt;li&gt;新库新表同步则需要走bisheng申请，已及代码开发&lt;/li&gt;&lt;/ol&gt;" style="text;html=1;align=center;verticalAlign=middle;resizable=0;points=[];autosize=1;strokeColor=none;fillColor=none;fontSize=18;fontColor=#393C56;perimeterSpacing=3;labelBackgroundColor=none;" vertex="1" parent="WIyWlLk6GJQsqaUBKTNV-1">
          <mxGeometry x="355" y="170" width="330" height="50" as="geometry" />
        </mxCell>
        <mxCell id="ZUxsnm-QVzawkIESuw82-22" value="销&lt;br&gt;氪&lt;br&gt;数&lt;br&gt;据&lt;br&gt;同&lt;br&gt;步" style="rounded=1;whiteSpace=wrap;html=1;fontSize=18;fontColor=#393C56;strokeColor=#E07A5F;fillColor=#F2CC8F;labelBackgroundColor=none;" vertex="1" parent="WIyWlLk6GJQsqaUBKTNV-1">
          <mxGeometry x="30" y="120" width="120" height="270" as="geometry" />
        </mxCell>
        <mxCell id="ZUxsnm-QVzawkIESuw82-23" value="外&lt;br&gt;部&lt;br&gt;平&lt;br&gt;台&lt;br&gt;数&lt;br&gt;据&lt;br&gt;同&lt;br&gt;步" style="rounded=1;whiteSpace=wrap;html=1;fontSize=18;fontColor=#393C56;strokeColor=#E07A5F;fillColor=#F2CC8F;labelBackgroundColor=none;" vertex="1" parent="WIyWlLk6GJQsqaUBKTNV-1">
          <mxGeometry x="30" y="490" width="120" height="320" as="geometry" />
        </mxCell>
        <mxCell id="ZUxsnm-QVzawkIESuw82-24" value="" style="endArrow=none;dashed=1;html=1;dashPattern=1 3;strokeWidth=2;rounded=0;fontSize=18;fontColor=#393C56;strokeColor=#E07A5F;labelBackgroundColor=#F4F1DE;" edge="1" parent="WIyWlLk6GJQsqaUBKTNV-1">
          <mxGeometry width="50" height="50" relative="1" as="geometry">
            <mxPoint x="40" y="440" as="sourcePoint" />
            <mxPoint x="800" y="440" as="targetPoint" />
          </mxGeometry>
        </mxCell>
      </root>
    </mxGraphModel>
  </diagram>
</mxfile>
